<mxfile host="app.diagrams.net" modified="2023-06-25T08:33:57.012Z" agent="Mozilla/5.0 (X11; Linux x86_64) AppleWebKit/537.36 (KHTML, like Gecko) Chrome/114.0.0.0 Safari/537.36" etag="XWNmYvrwkI99_uXIudfK" version="21.3.5" type="github">
  <diagram name="Page-1" id="Uf6m5s5soV7Gj-OxLGIB">
    <mxGraphModel dx="2286" dy="847" grid="1" gridSize="10" guides="1" tooltips="1" connect="1" arrows="1" fold="1" page="1" pageScale="1" pageWidth="850" pageHeight="1100" math="0" shadow="0">
      <root>
        <mxCell id="0" />
        <mxCell id="1" parent="0" />
        <mxCell id="lHTlmMKO7MYDzkG5uPYg-1" value="2.2" style="whiteSpace=wrap;html=1;aspect=fixed;fillColor=#CCE5FF;" vertex="1" parent="1">
          <mxGeometry x="380" y="330" width="80" height="80" as="geometry" />
        </mxCell>
        <mxCell id="lHTlmMKO7MYDzkG5uPYg-4" value="VM" style="swimlane;whiteSpace=wrap;html=1;" vertex="1" parent="1">
          <mxGeometry x="320" y="270" width="370" height="170" as="geometry" />
        </mxCell>
        <mxCell id="lHTlmMKO7MYDzkG5uPYg-5" value="Rebecca" style="swimlane;whiteSpace=wrap;html=1;" vertex="1" parent="1">
          <mxGeometry x="240" y="180" width="530" height="430" as="geometry" />
        </mxCell>
        <mxCell id="lHTlmMKO7MYDzkG5uPYg-6" value="GPU" style="ellipse;whiteSpace=wrap;html=1;aspect=fixed;" vertex="1" parent="lHTlmMKO7MYDzkG5uPYg-5">
          <mxGeometry x="220" y="320" width="80" height="80" as="geometry" />
        </mxCell>
        <mxCell id="lHTlmMKO7MYDzkG5uPYg-2" value="2.4.8" style="whiteSpace=wrap;html=1;aspect=fixed;fillColor=#E6FFCC;" vertex="1" parent="lHTlmMKO7MYDzkG5uPYg-5">
          <mxGeometry x="330" y="150" width="80" height="80" as="geometry" />
        </mxCell>
        <mxCell id="lHTlmMKO7MYDzkG5uPYg-7" value="" style="endArrow=classic;html=1;rounded=0;exitX=0.5;exitY=0;exitDx=0;exitDy=0;entryX=0.5;entryY=1;entryDx=0;entryDy=0;" edge="1" parent="1" source="lHTlmMKO7MYDzkG5uPYg-6" target="lHTlmMKO7MYDzkG5uPYg-1">
          <mxGeometry width="50" height="50" relative="1" as="geometry">
            <mxPoint x="400" y="400" as="sourcePoint" />
            <mxPoint x="450" y="350" as="targetPoint" />
          </mxGeometry>
        </mxCell>
        <mxCell id="lHTlmMKO7MYDzkG5uPYg-13" value="" style="shape=image;verticalLabelPosition=bottom;labelBackgroundColor=default;verticalAlign=top;aspect=fixed;imageAspect=0;image=https://www.clipartmax.com/png/middle/195-1955765_amazon-web-services-s3-aws-amazon-web-services.png;" vertex="1" parent="1">
          <mxGeometry x="-10" y="330" width="136.83" height="72" as="geometry" />
        </mxCell>
        <mxCell id="lHTlmMKO7MYDzkG5uPYg-14" value="" style="endArrow=classic;html=1;rounded=0;exitX=0;exitY=0.5;exitDx=0;exitDy=0;entryX=1;entryY=0.5;entryDx=0;entryDy=0;" edge="1" parent="1" source="lHTlmMKO7MYDzkG5uPYg-1" target="lHTlmMKO7MYDzkG5uPYg-13">
          <mxGeometry width="50" height="50" relative="1" as="geometry">
            <mxPoint x="510" y="280" as="sourcePoint" />
            <mxPoint x="560" y="230" as="targetPoint" />
          </mxGeometry>
        </mxCell>
        <mxCell id="lHTlmMKO7MYDzkG5uPYg-21" value="2.2&lt;br&gt;Backup" style="whiteSpace=wrap;html=1;aspect=fixed;fillColor=#FFCCCC;" vertex="1" parent="1">
          <mxGeometry x="373" y="910" width="80" height="80" as="geometry" />
        </mxCell>
        <mxCell id="lHTlmMKO7MYDzkG5uPYg-22" value="VM" style="swimlane;whiteSpace=wrap;html=1;" vertex="1" parent="1">
          <mxGeometry x="313" y="850" width="370" height="170" as="geometry" />
        </mxCell>
        <mxCell id="lHTlmMKO7MYDzkG5uPYg-23" value="Rebecca" style="swimlane;whiteSpace=wrap;html=1;" vertex="1" parent="1">
          <mxGeometry x="240" y="760" width="530" height="430" as="geometry" />
        </mxCell>
        <mxCell id="lHTlmMKO7MYDzkG5uPYg-24" value="GPU" style="ellipse;whiteSpace=wrap;html=1;aspect=fixed;" vertex="1" parent="lHTlmMKO7MYDzkG5uPYg-23">
          <mxGeometry x="220" y="320" width="80" height="80" as="geometry" />
        </mxCell>
        <mxCell id="lHTlmMKO7MYDzkG5uPYg-25" value="2.4.8" style="whiteSpace=wrap;html=1;aspect=fixed;fillColor=#CCE5FF;" vertex="1" parent="lHTlmMKO7MYDzkG5uPYg-23">
          <mxGeometry x="330" y="150" width="80" height="80" as="geometry" />
        </mxCell>
        <mxCell id="lHTlmMKO7MYDzkG5uPYg-26" value="" style="endArrow=classic;html=1;rounded=0;exitX=0.5;exitY=0;exitDx=0;exitDy=0;entryX=0.5;entryY=1;entryDx=0;entryDy=0;" edge="1" parent="lHTlmMKO7MYDzkG5uPYg-23" source="lHTlmMKO7MYDzkG5uPYg-24" target="lHTlmMKO7MYDzkG5uPYg-25">
          <mxGeometry width="50" height="50" relative="1" as="geometry">
            <mxPoint x="153" y="220" as="sourcePoint" />
            <mxPoint x="203" y="170" as="targetPoint" />
          </mxGeometry>
        </mxCell>
        <mxCell id="lHTlmMKO7MYDzkG5uPYg-28" value="" style="shape=image;verticalLabelPosition=bottom;labelBackgroundColor=default;verticalAlign=top;aspect=fixed;imageAspect=0;image=https://www.clipartmax.com/png/middle/195-1955765_amazon-web-services-s3-aws-amazon-web-services.png;" vertex="1" parent="1">
          <mxGeometry x="-20" y="900" width="136.83" height="72" as="geometry" />
        </mxCell>
        <mxCell id="lHTlmMKO7MYDzkG5uPYg-29" value="" style="endArrow=classic;html=1;rounded=0;exitX=0.5;exitY=1;exitDx=0;exitDy=0;entryX=0.5;entryY=0;entryDx=0;entryDy=0;" edge="1" parent="1" source="lHTlmMKO7MYDzkG5uPYg-5" target="lHTlmMKO7MYDzkG5uPYg-23">
          <mxGeometry width="50" height="50" relative="1" as="geometry">
            <mxPoint x="510" y="700" as="sourcePoint" />
            <mxPoint x="560" y="650" as="targetPoint" />
          </mxGeometry>
        </mxCell>
        <mxCell id="lHTlmMKO7MYDzkG5uPYg-30" value="Do Upgrade" style="edgeLabel;html=1;align=center;verticalAlign=middle;resizable=0;points=[];" vertex="1" connectable="0" parent="lHTlmMKO7MYDzkG5uPYg-29">
          <mxGeometry x="-0.1511" y="-2" relative="1" as="geometry">
            <mxPoint as="offset" />
          </mxGeometry>
        </mxCell>
        <mxCell id="lHTlmMKO7MYDzkG5uPYg-32" value="" style="endArrow=classic;html=1;rounded=0;exitX=0.5;exitY=0;exitDx=0;exitDy=0;entryX=0.5;entryY=0;entryDx=0;entryDy=0;" edge="1" parent="1" source="lHTlmMKO7MYDzkG5uPYg-25" target="lHTlmMKO7MYDzkG5uPYg-28">
          <mxGeometry width="50" height="50" relative="1" as="geometry">
            <mxPoint x="130" y="950" as="sourcePoint" />
            <mxPoint x="117" y="930" as="targetPoint" />
            <Array as="points">
              <mxPoint x="610" y="810" />
              <mxPoint x="48" y="810" />
            </Array>
          </mxGeometry>
        </mxCell>
        <mxCell id="lHTlmMKO7MYDzkG5uPYg-43" value="VM" style="swimlane;whiteSpace=wrap;html=1;" vertex="1" parent="1">
          <mxGeometry x="963" y="850" width="370" height="170" as="geometry" />
        </mxCell>
        <mxCell id="lHTlmMKO7MYDzkG5uPYg-44" value="Rebecca" style="swimlane;whiteSpace=wrap;html=1;" vertex="1" parent="1">
          <mxGeometry x="890" y="760" width="530" height="430" as="geometry" />
        </mxCell>
        <mxCell id="lHTlmMKO7MYDzkG5uPYg-45" value="GPU" style="ellipse;whiteSpace=wrap;html=1;aspect=fixed;" vertex="1" parent="lHTlmMKO7MYDzkG5uPYg-44">
          <mxGeometry x="220" y="320" width="80" height="80" as="geometry" />
        </mxCell>
        <mxCell id="lHTlmMKO7MYDzkG5uPYg-46" value="2.4.8" style="whiteSpace=wrap;html=1;aspect=fixed;fillColor=#CCE5FF;" vertex="1" parent="lHTlmMKO7MYDzkG5uPYg-44">
          <mxGeometry x="210" y="150" width="80" height="80" as="geometry" />
        </mxCell>
        <mxCell id="lHTlmMKO7MYDzkG5uPYg-47" value="" style="endArrow=classic;html=1;rounded=0;exitX=0.5;exitY=0;exitDx=0;exitDy=0;entryX=0.5;entryY=1;entryDx=0;entryDy=0;" edge="1" parent="lHTlmMKO7MYDzkG5uPYg-44" source="lHTlmMKO7MYDzkG5uPYg-45" target="lHTlmMKO7MYDzkG5uPYg-46">
          <mxGeometry width="50" height="50" relative="1" as="geometry">
            <mxPoint x="153" y="220" as="sourcePoint" />
            <mxPoint x="203" y="170" as="targetPoint" />
          </mxGeometry>
        </mxCell>
        <mxCell id="lHTlmMKO7MYDzkG5uPYg-42" value="2.2&lt;br&gt;Backup" style="whiteSpace=wrap;html=1;aspect=fixed;fillColor=#FFCCCC;dashed=1;" vertex="1" parent="lHTlmMKO7MYDzkG5uPYg-44">
          <mxGeometry x="95" y="150" width="80" height="80" as="geometry" />
        </mxCell>
        <mxCell id="lHTlmMKO7MYDzkG5uPYg-49" value="3.x.x" style="whiteSpace=wrap;html=1;aspect=fixed;fillColor=#E6FFCC;" vertex="1" parent="lHTlmMKO7MYDzkG5uPYg-44">
          <mxGeometry x="330" y="150" width="80" height="80" as="geometry" />
        </mxCell>
        <mxCell id="lHTlmMKO7MYDzkG5uPYg-50" value="" style="endArrow=classic;html=1;rounded=0;exitX=1;exitY=0.5;exitDx=0;exitDy=0;entryX=0;entryY=0.5;entryDx=0;entryDy=0;" edge="1" parent="1" source="lHTlmMKO7MYDzkG5uPYg-23" target="lHTlmMKO7MYDzkG5uPYg-44">
          <mxGeometry width="50" height="50" relative="1" as="geometry">
            <mxPoint x="920" y="900" as="sourcePoint" />
            <mxPoint x="970" y="850" as="targetPoint" />
          </mxGeometry>
        </mxCell>
        <mxCell id="lHTlmMKO7MYDzkG5uPYg-52" value="" style="endArrow=classic;html=1;rounded=0;exitX=0.5;exitY=0;exitDx=0;exitDy=0;entryX=0.5;entryY=0;entryDx=0;entryDy=0;dashed=1;dashPattern=8 8;" edge="1" parent="1" source="lHTlmMKO7MYDzkG5uPYg-44" target="lHTlmMKO7MYDzkG5uPYg-5">
          <mxGeometry width="50" height="50" relative="1" as="geometry">
            <mxPoint x="920" y="640" as="sourcePoint" />
            <mxPoint x="690" y="10" as="targetPoint" />
            <Array as="points">
              <mxPoint x="1160" y="80" />
              <mxPoint x="505" y="80" />
            </Array>
          </mxGeometry>
        </mxCell>
        <mxCell id="lHTlmMKO7MYDzkG5uPYg-55" value="VM" style="swimlane;whiteSpace=wrap;html=1;" vertex="1" parent="1">
          <mxGeometry x="-230" y="60" width="370" height="170" as="geometry" />
        </mxCell>
        <mxCell id="lHTlmMKO7MYDzkG5uPYg-56" value="snapshot 2&lt;br&gt;2.2" style="whiteSpace=wrap;html=1;aspect=fixed;fillColor=#CCE5FF;" vertex="1" parent="lHTlmMKO7MYDzkG5uPYg-55">
          <mxGeometry x="140" y="60" width="80" height="80" as="geometry" />
        </mxCell>
        <mxCell id="lHTlmMKO7MYDzkG5uPYg-57" value="2.2" style="whiteSpace=wrap;html=1;aspect=fixed;fillColor=#CCE5FF;" vertex="1" parent="lHTlmMKO7MYDzkG5uPYg-55">
          <mxGeometry x="250" y="60" width="80" height="80" as="geometry" />
        </mxCell>
        <mxCell id="lHTlmMKO7MYDzkG5uPYg-54" value="snapshot 1&lt;br&gt;2.2" style="whiteSpace=wrap;html=1;aspect=fixed;fillColor=#CCE5FF;" vertex="1" parent="lHTlmMKO7MYDzkG5uPYg-55">
          <mxGeometry x="40" y="60" width="80" height="80" as="geometry" />
        </mxCell>
        <mxCell id="lHTlmMKO7MYDzkG5uPYg-58" value="" style="endArrow=classic;html=1;rounded=0;entryX=0;entryY=0.5;entryDx=0;entryDy=0;exitX=1;exitY=0.5;exitDx=0;exitDy=0;" edge="1" parent="1" source="lHTlmMKO7MYDzkG5uPYg-55" target="lHTlmMKO7MYDzkG5uPYg-1">
          <mxGeometry width="50" height="50" relative="1" as="geometry">
            <mxPoint x="60" y="140" as="sourcePoint" />
            <mxPoint x="660" y="380" as="targetPoint" />
          </mxGeometry>
        </mxCell>
        <mxCell id="lHTlmMKO7MYDzkG5uPYg-60" value="Actor" style="shape=umlActor;verticalLabelPosition=bottom;verticalAlign=top;html=1;outlineConnect=0;" vertex="1" parent="1">
          <mxGeometry x="33.41999999999996" y="500" width="30" height="60" as="geometry" />
        </mxCell>
        <mxCell id="lHTlmMKO7MYDzkG5uPYg-62" value="" style="endArrow=classic;html=1;rounded=0;exitX=1;exitY=0.3333333333333333;exitDx=0;exitDy=0;exitPerimeter=0;entryX=0;entryY=0.5;entryDx=0;entryDy=0;" edge="1" parent="1" source="lHTlmMKO7MYDzkG5uPYg-60" target="lHTlmMKO7MYDzkG5uPYg-1">
          <mxGeometry width="50" height="50" relative="1" as="geometry">
            <mxPoint x="720" y="590" as="sourcePoint" />
            <mxPoint x="770" y="540" as="targetPoint" />
          </mxGeometry>
        </mxCell>
        <mxCell id="lHTlmMKO7MYDzkG5uPYg-63" value="Actor" style="shape=umlActor;verticalLabelPosition=bottom;verticalAlign=top;html=1;outlineConnect=0;" vertex="1" parent="1">
          <mxGeometry x="33.41999999999996" y="1060" width="30" height="60" as="geometry" />
        </mxCell>
        <mxCell id="lHTlmMKO7MYDzkG5uPYg-64" value="" style="endArrow=classic;html=1;rounded=0;exitX=1;exitY=0.3333333333333333;exitDx=0;exitDy=0;exitPerimeter=0;entryX=0;entryY=0.5;entryDx=0;entryDy=0;" edge="1" parent="1" source="lHTlmMKO7MYDzkG5uPYg-63" target="lHTlmMKO7MYDzkG5uPYg-25">
          <mxGeometry width="50" height="50" relative="1" as="geometry">
            <mxPoint x="720" y="1150" as="sourcePoint" />
            <mxPoint x="380" y="930" as="targetPoint" />
            <Array as="points">
              <mxPoint x="310" y="1070" />
            </Array>
          </mxGeometry>
        </mxCell>
        <mxCell id="lHTlmMKO7MYDzkG5uPYg-75" value="Upgrade" style="swimlane;whiteSpace=wrap;html=1;" vertex="1" parent="1">
          <mxGeometry x="180" y="1250" width="990" height="260" as="geometry" />
        </mxCell>
        <mxCell id="lHTlmMKO7MYDzkG5uPYg-70" value="Data Backup" style="rounded=1;whiteSpace=wrap;html=1;fillColor=#CCE5FF;" vertex="1" parent="lHTlmMKO7MYDzkG5uPYg-75">
          <mxGeometry x="145" y="140" width="120" height="30" as="geometry" />
        </mxCell>
        <mxCell id="lHTlmMKO7MYDzkG5uPYg-71" value="Data Transfer" style="rounded=1;whiteSpace=wrap;html=1;fillColor=#FFCCCC;" vertex="1" parent="lHTlmMKO7MYDzkG5uPYg-75">
          <mxGeometry x="482" y="200" width="120" height="30" as="geometry" />
        </mxCell>
        <mxCell id="lHTlmMKO7MYDzkG5uPYg-67" value="Functional Testing" style="rounded=1;whiteSpace=wrap;html=1;fillColor=#E6FFCC;" vertex="1" parent="lHTlmMKO7MYDzkG5uPYg-75">
          <mxGeometry x="482" y="90" width="120" height="30" as="geometry" />
        </mxCell>
        <mxCell id="lHTlmMKO7MYDzkG5uPYg-72" value="Data Transfer Checking/Testing" style="rounded=1;whiteSpace=wrap;html=1;fillColor=#E6FFCC;" vertex="1" parent="lHTlmMKO7MYDzkG5uPYg-75">
          <mxGeometry x="482" y="140" width="120" height="30" as="geometry" />
        </mxCell>
        <mxCell id="lHTlmMKO7MYDzkG5uPYg-73" value="Switch Environment&lt;br&gt;(Green -&amp;gt; Blue)" style="rounded=1;whiteSpace=wrap;html=1;fillColor=#FFCCCC;" vertex="1" parent="lHTlmMKO7MYDzkG5uPYg-75">
          <mxGeometry x="685" y="140" width="120" height="30" as="geometry" />
        </mxCell>
        <mxCell id="lHTlmMKO7MYDzkG5uPYg-78" value="Prepare Green Env" style="rounded=1;whiteSpace=wrap;html=1;fillColor=#FFCCCC;" vertex="1" parent="lHTlmMKO7MYDzkG5uPYg-75">
          <mxGeometry x="482" y="40" width="120" height="30" as="geometry" />
        </mxCell>
        <mxCell id="lHTlmMKO7MYDzkG5uPYg-79" value="" style="endArrow=classic;html=1;rounded=0;exitX=0.5;exitY=1;exitDx=0;exitDy=0;entryX=0.5;entryY=0;entryDx=0;entryDy=0;" edge="1" parent="lHTlmMKO7MYDzkG5uPYg-75" source="lHTlmMKO7MYDzkG5uPYg-78" target="lHTlmMKO7MYDzkG5uPYg-67">
          <mxGeometry width="50" height="50" relative="1" as="geometry">
            <mxPoint x="505" as="sourcePoint" />
            <mxPoint x="555" y="-50" as="targetPoint" />
          </mxGeometry>
        </mxCell>
        <mxCell id="lHTlmMKO7MYDzkG5uPYg-80" value="" style="endArrow=classic;html=1;rounded=0;exitX=0.5;exitY=1;exitDx=0;exitDy=0;entryX=0.5;entryY=0;entryDx=0;entryDy=0;" edge="1" parent="lHTlmMKO7MYDzkG5uPYg-75" source="lHTlmMKO7MYDzkG5uPYg-67" target="lHTlmMKO7MYDzkG5uPYg-72">
          <mxGeometry width="50" height="50" relative="1" as="geometry">
            <mxPoint x="505" as="sourcePoint" />
            <mxPoint x="555" y="-50" as="targetPoint" />
          </mxGeometry>
        </mxCell>
        <mxCell id="lHTlmMKO7MYDzkG5uPYg-81" value="" style="endArrow=classic;html=1;rounded=0;exitX=0.5;exitY=1;exitDx=0;exitDy=0;entryX=0.5;entryY=0;entryDx=0;entryDy=0;" edge="1" parent="lHTlmMKO7MYDzkG5uPYg-75" source="lHTlmMKO7MYDzkG5uPYg-86" target="lHTlmMKO7MYDzkG5uPYg-70">
          <mxGeometry width="50" height="50" relative="1" as="geometry">
            <mxPoint x="505" as="sourcePoint" />
            <mxPoint x="275" y="220" as="targetPoint" />
          </mxGeometry>
        </mxCell>
        <mxCell id="lHTlmMKO7MYDzkG5uPYg-82" value="" style="endArrow=classic;html=1;rounded=0;exitX=1;exitY=0.5;exitDx=0;exitDy=0;entryX=0;entryY=0.75;entryDx=0;entryDy=0;" edge="1" parent="lHTlmMKO7MYDzkG5uPYg-75" source="lHTlmMKO7MYDzkG5uPYg-71" target="lHTlmMKO7MYDzkG5uPYg-73">
          <mxGeometry width="50" height="50" relative="1" as="geometry">
            <mxPoint x="505" as="sourcePoint" />
            <mxPoint x="555" y="-50" as="targetPoint" />
          </mxGeometry>
        </mxCell>
        <mxCell id="lHTlmMKO7MYDzkG5uPYg-86" value="Lock Blue Data" style="rounded=1;whiteSpace=wrap;html=1;fillColor=#CCE5FF;" vertex="1" parent="lHTlmMKO7MYDzkG5uPYg-75">
          <mxGeometry x="145" y="90" width="120" height="30" as="geometry" />
        </mxCell>
        <mxCell id="lHTlmMKO7MYDzkG5uPYg-87" value="" style="endArrow=classic;html=1;rounded=0;exitX=1;exitY=0.5;exitDx=0;exitDy=0;entryX=0;entryY=0.5;entryDx=0;entryDy=0;" edge="1" parent="lHTlmMKO7MYDzkG5uPYg-75" source="lHTlmMKO7MYDzkG5uPYg-70" target="lHTlmMKO7MYDzkG5uPYg-71">
          <mxGeometry width="50" height="50" relative="1" as="geometry">
            <mxPoint x="505" as="sourcePoint" />
            <mxPoint x="555" y="-50" as="targetPoint" />
          </mxGeometry>
        </mxCell>
        <mxCell id="lHTlmMKO7MYDzkG5uPYg-88" value="" style="endArrow=classic;html=1;rounded=0;exitX=0;exitY=0.5;exitDx=0;exitDy=0;entryX=1;entryY=0.5;entryDx=0;entryDy=0;" edge="1" parent="lHTlmMKO7MYDzkG5uPYg-75" source="lHTlmMKO7MYDzkG5uPYg-72" target="lHTlmMKO7MYDzkG5uPYg-86">
          <mxGeometry width="50" height="50" relative="1" as="geometry">
            <mxPoint x="475" y="280" as="sourcePoint" />
            <mxPoint x="525" y="230" as="targetPoint" />
          </mxGeometry>
        </mxCell>
        <mxCell id="lHTlmMKO7MYDzkG5uPYg-85" value="New Version&lt;br&gt;Online" style="ellipse;whiteSpace=wrap;html=1;aspect=fixed;" vertex="1" parent="lHTlmMKO7MYDzkG5uPYg-75">
          <mxGeometry x="860" y="115" width="80" height="80" as="geometry" />
        </mxCell>
        <mxCell id="lHTlmMKO7MYDzkG5uPYg-84" value="" style="endArrow=classic;html=1;rounded=0;exitX=1;exitY=0.5;exitDx=0;exitDy=0;entryX=0;entryY=0.5;entryDx=0;entryDy=0;" edge="1" parent="lHTlmMKO7MYDzkG5uPYg-75" source="lHTlmMKO7MYDzkG5uPYg-73" target="lHTlmMKO7MYDzkG5uPYg-85">
          <mxGeometry width="50" height="50" relative="1" as="geometry">
            <mxPoint x="475" as="sourcePoint" />
            <mxPoint x="844.999999999975" y="155" as="targetPoint" />
          </mxGeometry>
        </mxCell>
      </root>
    </mxGraphModel>
  </diagram>
</mxfile>
